<svg width="88" height="88" viewBox="0 0 88 88" fill="none" xmlns="http://www.w3.org/2000/svg">
<g clip-path="url(#clip0_4050_5337)">
<path d="M62.9272 30.7442V7.46924H16.4082V81.8996H62.9272V60.2838C71.2851 53.461 74.5569 49.8015 74.5569 42.7616C74.5569 36.2645 69.3778 30.9613 62.9272 30.7442ZM58.2753 77.2477H21.0601V12.1211H30.8446L31.9145 16.773H47.4208L48.4908 12.1211H58.2753V31.5195C56.5075 32.1863 54.8949 33.2563 53.6234 34.6673C51.375 32.2018 48.1651 30.7287 44.7227 30.7287C38.086 30.7287 32.6898 36.1249 32.6898 42.7616C32.6898 51.042 37.2022 54.6395 49.2351 64.2379L53.6234 67.7423L58.0117 64.2379C58.1047 64.1603 58.1822 64.0983 58.2753 64.0208V77.2477ZM55.112 60.5939L53.6234 61.7879L52.1348 60.5939C40.1639 51.042 37.3417 48.5765 37.3417 42.7461C37.3417 38.6835 40.6446 35.3651 44.7227 35.3651C47.6534 35.3651 50.3205 37.1018 51.499 39.7999L51.592 40.017H55.6702L55.7632 39.7999C56.9417 37.1018 59.5933 35.3651 62.5395 35.3651C66.6022 35.3651 69.9205 38.668 69.9205 42.7461C69.9205 48.561 67.0984 51.042 55.1275 60.5939H55.112Z" fill="#21201F"/>
</g>
<defs>
<clipPath id="clip0_4050_5337">
<rect width="74.4303" height="74.4303" fill="white" transform="translate(7.10352 7.46924)"/>
</clipPath>
</defs>
</svg>
