<svg width="40" height="40" viewBox="0 0 40 40" fill="none" xmlns="http://www.w3.org/2000/svg">
<g clip-path="url(#clip0_1318_1379)">
<path d="M20 30C14.477 30 10 25.523 10 20C10 14.477 14.477 10 20 10C25.523 10 30 14.477 30 20C30 25.523 25.523 30 20 30ZM17.71 27.667C16.7234 25.5743 16.1519 23.3102 16.027 21H12.062C12.2566 22.5389 12.8939 23.9882 13.8966 25.1717C14.8992 26.3552 16.224 27.2221 17.71 27.667ZM18.03 21C18.181 23.439 18.878 25.73 20 27.752C21.1523 25.6766 21.8254 23.3695 21.97 21H18.03ZM27.938 21H23.973C23.8481 23.3102 23.2766 25.5743 22.29 27.667C23.776 27.2221 25.1008 26.3552 26.1034 25.1717C27.1061 23.9882 27.7434 22.5389 27.938 21ZM12.062 19H16.027C16.1519 16.6898 16.7234 14.4257 17.71 12.333C16.224 12.7779 14.8992 13.6448 13.8966 14.8283C12.8939 16.0118 12.2566 17.4611 12.062 19ZM18.031 19H21.969C21.8248 16.6306 21.152 14.3235 20 12.248C18.8477 14.3234 18.1746 16.6305 18.03 19H18.031ZM22.29 12.333C23.2766 14.4257 23.8481 16.6898 23.973 19H27.938C27.7434 17.4611 27.1061 16.0118 26.1034 14.8283C25.1008 13.6448 23.776 12.7779 22.29 12.333Z" fill="white"/>
</g>
<rect x="0.5" y="0.5" width="39" height="39" rx="19.5" stroke="#E5E5E5"/>
<defs>
<clipPath id="clip0_1318_1379">
<rect width="24" height="24" fill="white" transform="translate(8 8)"/>
</clipPath>
</defs>
</svg>
